<svg width="41" height="51" viewBox="0 0 41 51" fill="none" xmlns="http://www.w3.org/2000/svg">
<path d="M40.0552 6.05933C40.0552 7.54937 39.4668 8.97837 38.4194 10.032C37.3719 11.0856 35.9513 11.6775 34.47 11.6775H4.70669C4.0883 11.6764 3.47579 11.7982 2.90427 12.0357C2.33275 12.2733 1.81346 12.622 1.37619 13.0618C0.938922 13.5017 0.59228 14.024 0.356123 14.5989C0.119966 15.1738 -0.00105469 15.79 6.92437e-06 16.412V16.6309C6.92437e-06 17.8866 0.4959 19.0908 1.37858 19.9787C2.26125 20.8666 3.4584 21.3654 4.70669 21.3654H23.9687C25.2169 21.3654 26.4141 21.8642 27.2968 22.7521C28.1795 23.64 28.6754 24.8442 28.6754 26.0999C28.6732 27.3549 28.1766 28.5579 27.2944 29.4454C26.4122 30.3328 25.2163 30.8323 23.9687 30.8344H4.70669C4.08898 30.8334 3.47714 30.9548 2.90614 31.1919C2.33515 31.4289 1.8162 31.7769 1.37904 32.2159C0.941881 32.6549 0.595067 33.1763 0.358435 33.7502C0.121803 34.3242 6.01567e-06 34.9395 6.92437e-06 35.5608V45.8C-0.00105469 46.4221 0.119966 47.0382 0.356123 47.6131C0.59228 48.188 0.938922 48.7103 1.37619 49.1502C1.81346 49.59 2.33275 49.9387 2.90427 50.1763C3.47579 50.4138 4.0883 50.5356 4.70669 50.5345H5.3595C5.97789 50.5356 6.59043 50.4138 7.16195 50.1763C7.73347 49.9387 8.25274 49.59 8.69001 49.1502C9.12727 48.7103 9.47394 48.188 9.7101 47.6131C9.94625 47.0382 10.0673 46.4221 10.0662 45.8V6.07555C10.0662 5.33814 10.2107 4.60797 10.4915 3.9268C10.7723 3.24562 11.1838 2.62681 11.7025 2.10576C12.2213 1.58471 12.8371 1.17165 13.5146 0.890198C14.1922 0.608743 14.9183 0.464421 15.6514 0.465487H34.47C35.9478 0.463332 37.366 1.05121 38.4132 2.10003C39.4604 3.14885 40.051 4.57286 40.0552 6.05933Z" fill="white"/>
</svg>
